<svg width="22" height="22" viewBox="0 0 22 22" fill="none" xmlns="http://www.w3.org/2000/svg">
<path d="M3.5 3.5H21.5L19.25 13.25H5.75M19.25 16.25H6.5L2.75 0.5H0.5" stroke="#EFE7D2" stroke-linecap="round" stroke-linejoin="round"/>
<path d="M17.75 20.75C18.5784 20.75 19.25 20.0784 19.25 19.25C19.25 18.4216 18.5784 17.75 17.75 17.75C16.9216 17.75 16.25 18.4216 16.25 19.25C16.25 20.0784 16.9216 20.75 17.75 20.75Z" stroke="#EFE7D2" stroke-linecap="round" stroke-linejoin="round"/>
<path d="M8 20.75C8.82843 20.75 9.5 20.0784 9.5 19.25C9.5 18.4216 8.82843 17.75 8 17.75C7.17157 17.75 6.5 18.4216 6.5 19.25C6.5 20.0784 7.17157 20.75 8 20.75Z" stroke="#EFE7D2" stroke-linecap="round" stroke-linejoin="round"/>
</svg>
