<svg width="16" height="16" viewBox="0 0 16 16" fill="none" xmlns="http://www.w3.org/2000/svg">
<path d="M15.1719 8C15.1719 6.58154 14.7513 5.19493 13.9632 4.01552C13.1751 2.83611 12.055 1.91688 10.7446 1.37405C9.43407 0.831232 7.99205 0.689205 6.60084 0.965934C5.20963 1.24266 3.93173 1.92572 2.92872 2.92872C1.92572 3.93173 1.24266 5.20963 0.965934 6.60084C0.689205 7.99205 0.831232 9.43407 1.37405 10.7446C1.91688 12.055 2.83611 13.1751 4.01552 13.9632C5.19493 14.7513 6.58154 15.1719 8 15.1719C9.90153 15.17 11.7246 14.4138 13.0692 13.0692C14.4138 11.7246 15.17 9.90153 15.1719 8ZM8.42188 14.3141V9.54688H10.25C10.3619 9.54688 10.4692 9.50243 10.5483 9.42331C10.6274 9.3442 10.6719 9.23689 10.6719 9.125C10.6719 9.01312 10.6274 8.90581 10.5483 8.82669C10.4692 8.74758 10.3619 8.70313 10.25 8.70313H8.42188V6.875C8.42372 6.53991 8.55766 6.21906 8.79461 5.98211C9.03156 5.74516 9.35241 5.61122 9.6875 5.60938H10.8125C10.9244 5.60938 11.0317 5.56493 11.1108 5.48581C11.1899 5.4067 11.2344 5.29939 11.2344 5.1875C11.2344 5.07562 11.1899 4.96831 11.1108 4.88919C11.0317 4.81008 10.9244 4.76563 10.8125 4.76563H9.6875C9.12863 4.76748 8.59318 4.99031 8.198 5.3855C7.80281 5.78068 7.57998 6.31613 7.57813 6.875V8.70313H5.75C5.63812 8.70313 5.53081 8.74758 5.45169 8.82669C5.37258 8.90581 5.32813 9.01312 5.32813 9.125C5.32813 9.23689 5.37258 9.3442 5.45169 9.42331C5.53081 9.50243 5.63812 9.54688 5.75 9.54688H7.57813V14.3141C5.94 14.2046 4.40853 13.4628 3.30714 12.2453C2.20574 11.0277 1.62064 9.42983 1.6754 7.78896C1.73016 6.1481 2.42048 4.59274 3.6006 3.45135C4.78071 2.30996 6.35822 1.67189 8 1.67189C9.64178 1.67189 11.2193 2.30996 12.3994 3.45135C13.5795 4.59274 14.2699 6.1481 14.3246 7.78896C14.3794 9.42983 13.7943 11.0277 12.6929 12.2453C11.5915 13.4628 10.06 14.2046 8.42188 14.3141Z" fill="#EFE7D2"/>
</svg>
