<svg width="14" height="14" viewBox="0 0 14 14" fill="none" xmlns="http://www.w3.org/2000/svg">
<path d="M7 3.76562C6.3603 3.76562 5.73497 3.95532 5.20308 4.31072C4.67119 4.66611 4.25663 5.17125 4.01183 5.76226C3.76702 6.35326 3.70297 7.00359 3.82777 7.631C3.95257 8.2584 4.26062 8.83471 4.71295 9.28705C5.16529 9.73938 5.7416 10.0474 6.369 10.1722C6.99641 10.297 7.64674 10.233 8.23774 9.98817C8.82875 9.74337 9.33389 9.32881 9.68928 8.79692C10.0447 8.26503 10.2344 7.6397 10.2344 7C10.2344 6.14219 9.89361 5.31951 9.28705 4.71295C8.68049 4.10639 7.85781 3.76562 7 3.76562ZM7 9.39062C6.52718 9.39062 6.06498 9.25042 5.67184 8.98773C5.2787 8.72505 4.97229 8.35168 4.79135 7.91485C4.61041 7.47802 4.56307 6.99735 4.65531 6.53361C4.74755 6.06988 4.97524 5.64391 5.30957 5.30957C5.64391 4.97524 6.06988 4.74755 6.53361 4.65531C6.99735 4.56307 7.47802 4.61041 7.91485 4.79135C8.35168 4.97229 8.72505 5.2787 8.98773 5.67184C9.25042 6.06498 9.39062 6.52718 9.39062 7C9.38877 7.63346 9.13631 8.24045 8.68838 8.68838C8.24045 9.13631 7.63346 9.38877 7 9.39062ZM10.0938 0.109375H3.90625C2.89926 0.109375 1.93351 0.509402 1.22145 1.22145C0.509402 1.93351 0.109375 2.89926 0.109375 3.90625V10.0938C0.109375 11.1007 0.509402 12.0665 1.22145 12.7785C1.93351 13.4906 2.89926 13.8906 3.90625 13.8906H10.0938C11.1007 13.8906 12.0665 13.4906 12.7785 12.7785C13.4906 12.0665 13.8906 11.1007 13.8906 10.0938V3.90625C13.8906 2.89926 13.4906 1.93351 12.7785 1.22145C12.0665 0.509402 11.1007 0.109375 10.0938 0.109375ZM13.0469 10.0938C13.0469 10.877 12.7357 11.6281 12.1819 12.1819C11.6281 12.7357 10.877 13.0469 10.0938 13.0469H3.90625C3.12303 13.0469 2.37189 12.7357 1.81808 12.1819C1.26426 11.6281 0.953125 10.877 0.953125 10.0938V3.90625C0.953125 3.12303 1.26426 2.37189 1.81808 1.81808C2.37189 1.26426 3.12303 0.953125 3.90625 0.953125H10.0938C10.877 0.953125 11.6281 1.26426 12.1819 1.81808C12.7357 2.37189 13.0469 3.12303 13.0469 3.90625V10.0938ZM11.3594 3.34375C11.3594 3.48281 11.3181 3.61876 11.2409 3.73439C11.1636 3.85001 11.0538 3.94013 10.9253 3.99335C10.7968 4.04657 10.6555 4.06049 10.5191 4.03336C10.3827 4.00623 10.2574 3.93927 10.1591 3.84093C10.0607 3.7426 9.99377 3.61732 9.96664 3.48092C9.93951 3.34453 9.95343 3.20315 10.0066 3.07468C10.0599 2.9462 10.15 2.83638 10.2656 2.75912C10.3812 2.68186 10.5172 2.64062 10.6562 2.64062C10.8427 2.64062 11.0216 2.7147 11.1534 2.84657C11.2853 2.97843 11.3594 3.15727 11.3594 3.34375Z" fill="#EFE7D2"/>
</svg>
