<svg width="12" height="12" viewBox="0 0 12 12" fill="none" xmlns="http://www.w3.org/2000/svg">
<path d="M11.8407 0.511933C11.8353 0.420192 11.7965 0.333611 11.7315 0.26863C11.6665 0.203649 11.5799 0.16479 11.4882 0.159433C6.77695 -0.118067 3.00883 1.29443 1.4082 3.93756C0.318202 5.73693 0.360702 7.86256 1.52008 9.95006L0.235077 11.2351C0.198233 11.2694 0.168682 11.3108 0.148186 11.3568C0.12769 11.4028 0.116669 11.4524 0.115781 11.5028C0.114893 11.5531 0.124155 11.6032 0.143015 11.6499C0.161876 11.6966 0.189948 11.739 0.225558 11.7746C0.261167 11.8102 0.303584 11.8383 0.350278 11.8571C0.396972 11.876 0.446987 11.8852 0.497338 11.8844C0.547689 11.8835 0.597346 11.8724 0.643346 11.852C0.689345 11.8315 0.730746 11.8019 0.765077 11.7651L2.05008 10.4801C3.12945 11.0794 4.21883 11.3807 5.2682 11.3807C6.25466 11.3811 7.22193 11.1081 8.06258 10.5919C10.7057 8.99131 12.1176 5.22318 11.8407 0.511933ZM7.67445 9.94943C6.16945 10.8607 4.38445 10.8476 2.60383 9.92506L8.2657 4.26318C8.33194 4.1921 8.368 4.09807 8.36629 4.00092C8.36458 3.90377 8.32522 3.81108 8.25651 3.74237C8.18781 3.67367 8.09511 3.63431 7.99796 3.6326C7.90081 3.63088 7.80679 3.66694 7.7357 3.73318L2.07383 9.39631C1.15133 7.61568 1.13633 5.83381 2.04945 4.32568C3.46695 1.98631 6.83883 0.713183 11.112 0.891308C11.287 5.16131 10.0138 8.53381 7.67445 9.95068V9.94943Z" fill="#EFE7D2"/>
</svg>
