<svg width="119" height="27" viewBox="0 0 119 27" fill="none" xmlns="http://www.w3.org/2000/svg">
<path d="M11.008 0C12.672 0 14.1653 0.32 15.488 0.959999C16.8107 1.57867 17.9307 2.4 18.848 3.424C19.7867 4.42667 20.5013 5.568 20.992 6.848C21.504 8.128 21.76 9.42933 21.76 10.752C21.76 11.712 21.664 12.5973 21.472 13.408C21.28 14.2187 21.0133 14.9653 20.672 15.648C20.3307 16.3307 19.936 16.96 19.488 17.536C19.0613 18.0907 18.592 18.6027 18.08 19.072L19.136 20.256C19.968 21.024 20.8747 21.7067 21.856 22.304C22.8373 22.9227 23.8293 23.4347 24.832 23.84C25.8347 24.2667 26.8267 24.5867 27.808 24.8C28.7893 25.0133 29.6853 25.12 30.496 25.12C31.2 25.12 31.9467 25.056 32.736 24.928C33.5467 24.8 34.3573 24.608 35.168 24.352C36 24.096 36.8213 23.7547 37.632 23.328C38.4427 22.9227 39.2107 22.432 39.936 21.856L40.128 22.144C39.424 22.912 38.6347 23.584 37.76 24.16C36.8853 24.7573 35.968 25.248 35.008 25.632C34.048 26.016 33.056 26.304 32.032 26.496C31.0293 26.7093 30.0373 26.816 29.056 26.816C28.0747 26.816 27.0933 26.7307 26.112 26.56C25.1307 26.3893 24.1493 26.1013 23.168 25.696C22.1867 25.2907 21.2053 24.736 20.224 24.032C19.2427 23.3493 18.2613 22.4853 17.28 21.44L16.192 20.288C15.8293 20.5227 15.4133 20.736 14.944 20.928C14.496 21.0987 14.016 21.248 13.504 21.376C12.992 21.504 12.4693 21.6 11.936 21.664C11.4027 21.728 10.9013 21.76 10.432 21.76C8.93867 21.76 7.552 21.4613 6.272 20.864C5.01333 20.2453 3.91467 19.4453 2.976 18.464C2.05867 17.4613 1.33333 16.32 0.8 15.04C0.266667 13.76 0 12.448 0 11.104C0 9.73867 0.245333 8.39467 0.736 7.072C1.22667 5.728 1.94133 4.53333 2.88 3.488C3.84 2.44267 5.00267 1.6 6.368 0.959999C7.73333 0.32 9.28 0 11.008 0ZM10.976 20.64C12.4053 20.576 13.664 20.256 14.752 19.68C15.84 19.0827 16.736 18.336 17.44 17.44C18.1653 16.5227 18.7093 15.52 19.072 14.432C19.4347 13.344 19.616 12.2773 19.616 11.232C19.616 10.0587 19.392 8.87467 18.944 7.68C18.5173 6.464 17.9093 5.376 17.12 4.416C16.352 3.43467 15.4133 2.64533 14.304 2.048C13.1947 1.42933 11.968 1.12 10.624 1.12C9.30133 1.12 8.10667 1.41867 7.04 2.016C5.99467 2.592 5.10933 3.33867 4.384 4.256C3.65867 5.17333 3.104 6.19733 2.72 7.328C2.336 8.43733 2.144 9.536 2.144 10.624C2.144 11.7973 2.35733 12.9813 2.784 14.176C3.232 15.3707 3.85067 16.448 4.64 17.408C5.42933 18.368 6.35733 19.1467 7.424 19.744C8.512 20.3413 9.696 20.64 10.976 20.64Z" fill="#EFE7D2"/>
<path d="M24.9755 0.32H29.5515V0.639999H29.3915C29.2422 0.639999 29.1035 0.703999 28.9755 0.831999C28.8475 0.938665 28.7408 1.07733 28.6555 1.248C28.5702 1.39733 28.4955 1.57867 28.4315 1.792C28.3888 1.984 28.3675 2.15467 28.3675 2.304V19.36C28.3675 19.5307 28.3888 19.7227 28.4315 19.936C28.4742 20.128 28.5382 20.3093 28.6235 20.48C28.7302 20.6507 28.8368 20.8 28.9435 20.928C29.0715 21.056 29.2208 21.12 29.3915 21.12H29.5515V21.44H24.9755V21.12H25.1355C25.3062 21.12 25.4555 21.0667 25.5835 20.96C25.7115 20.832 25.8182 20.6827 25.9035 20.512C26.0102 20.32 26.0848 20.128 26.1275 19.936C26.1702 19.7227 26.1915 19.5307 26.1915 19.36V2.304C26.1915 2.15467 26.1702 1.984 26.1275 1.792C26.0848 1.6 26.0102 1.41867 25.9035 1.248C25.8182 1.07733 25.7115 0.938665 25.5835 0.831999C25.4555 0.703999 25.3062 0.639999 25.1355 0.639999H24.9755V0.32Z" fill="#EFE7D2"/>
<path d="M40.7248 21.12H40.8848V21.44H36.3408V21.12H36.5008C36.6714 21.12 36.8208 21.056 36.9488 20.928C37.0768 20.8 37.1834 20.6507 37.2688 20.48C37.3754 20.3093 37.4501 20.128 37.4928 19.936C37.5354 19.7227 37.5568 19.5307 37.5568 19.36V1.504H33.8447C33.5034 1.504 33.2048 1.57867 32.9487 1.728C32.6927 1.87733 32.4794 2.06933 32.3088 2.304C32.1381 2.51733 32.0101 2.76267 31.9247 3.04C31.8394 3.296 31.7968 3.552 31.7968 3.808H31.4767V0.32H45.8448V3.808H45.5247C45.5247 3.552 45.4821 3.296 45.3968 3.04C45.3114 2.76267 45.1834 2.51733 45.0128 2.304C44.8421 2.06933 44.6288 1.87733 44.3728 1.728C44.1168 1.57867 43.8181 1.504 43.4768 1.504H39.7008V19.36C39.7008 19.5307 39.7221 19.7227 39.7648 19.936C39.8074 20.128 39.8714 20.3093 39.9568 20.48C40.0634 20.6507 40.1701 20.8 40.2768 20.928C40.4048 21.056 40.5541 21.12 40.7248 21.12Z" fill="#EFE7D2"/>
<path d="M57.1115 1.152C55.5328 1.152 54.1568 1.44 52.9835 2.016C51.8315 2.57067 50.8715 3.30667 50.1035 4.224C49.3355 5.12 48.7595 6.13333 48.3755 7.264C48.0128 8.39467 47.8315 9.51467 47.8315 10.624C47.8315 11.8827 48.0768 13.12 48.5675 14.336C49.0582 15.5307 49.7302 16.5973 50.5835 17.536C51.4582 18.4533 52.4715 19.2 53.6235 19.776C54.7755 20.3307 56.0235 20.608 57.3675 20.608C57.7515 20.608 58.1995 20.5653 58.7115 20.48C59.2448 20.3947 59.7675 20.2347 60.2795 20C60.7915 19.744 61.2608 19.392 61.6875 18.944C62.1355 18.496 62.4768 17.9093 62.7115 17.184H63.0315V20.736C62.7115 20.736 62.3702 20.7787 62.0075 20.864C61.6662 20.9493 61.2822 21.0453 60.8555 21.152C60.3008 21.3013 59.6822 21.44 58.9995 21.568C58.3382 21.696 57.6342 21.76 56.8875 21.76C55.0315 21.76 53.3995 21.44 51.9915 20.8C50.5835 20.16 49.4102 19.328 48.4715 18.304C47.5328 17.28 46.8288 16.128 46.3595 14.848C45.8902 13.5467 45.6555 12.2347 45.6555 10.912C45.6555 9.58933 45.8902 8.27733 46.3595 6.976C46.8288 5.67467 47.5435 4.512 48.5035 3.488C49.4635 2.44267 50.6688 1.6 52.1195 0.959999C53.5702 0.32 55.2768 0 57.2395 0C57.9435 0 58.5728 0.0639998 59.1275 0.191999C59.7035 0.319999 60.2155 0.447999 60.6635 0.576C60.9835 0.682667 61.2715 0.768 61.5275 0.831999C61.8048 0.874666 62.0715 0.896 62.3275 0.896V4.448H62.0075C61.8795 3.78667 61.6448 3.24267 61.3035 2.816C60.9622 2.368 60.5568 2.02667 60.0875 1.792C59.6395 1.55733 59.1488 1.39733 58.6155 1.312C58.1035 1.20533 57.6022 1.152 57.1115 1.152Z" fill="#EFE7D2"/>
<path d="M78.553 21.12H78.713C78.8623 21.12 79.001 21.0667 79.129 20.96C79.257 20.832 79.3637 20.6827 79.449 20.512C79.5557 20.32 79.6303 20.128 79.673 19.936C79.7157 19.7227 79.737 19.5307 79.737 19.36V10.656H69.497V19.36C69.497 19.5307 69.5183 19.7227 69.561 19.936C69.6037 20.128 69.6677 20.3093 69.753 20.48C69.8383 20.6507 69.9343 20.8 70.041 20.928C70.169 21.056 70.3183 21.12 70.489 21.12H70.649V21.44H66.169V21.12H66.329C66.4783 21.12 66.617 21.0667 66.745 20.96C66.873 20.832 66.9797 20.6827 67.065 20.512C67.1717 20.32 67.2463 20.128 67.289 19.936C67.3317 19.7227 67.353 19.5307 67.353 19.36V2.304C67.353 2.15467 67.3317 1.984 67.289 1.792C67.2463 1.6 67.1823 1.41867 67.097 1.248C67.0117 1.07733 66.905 0.938665 66.777 0.831999C66.649 0.703999 66.4997 0.639999 66.329 0.639999H66.169V0.32H70.649V0.639999H70.489C70.3183 0.639999 70.169 0.703999 70.041 0.831999C69.913 0.938665 69.8063 1.07733 69.721 1.248C69.657 1.41867 69.6037 1.6 69.561 1.792C69.5183 1.984 69.497 2.15467 69.497 2.304V9.536H79.737V2.304C79.737 2.15467 79.7157 1.984 79.673 1.792C79.6303 1.6 79.5663 1.41867 79.481 1.248C79.3957 1.07733 79.289 0.938665 79.161 0.831999C79.033 0.703999 78.8837 0.639999 78.713 0.639999H78.553V0.32H83.033V0.639999H82.873C82.7023 0.639999 82.553 0.703999 82.425 0.831999C82.297 0.938665 82.1903 1.07733 82.105 1.248C82.041 1.41867 81.9877 1.6 81.945 1.792C81.9023 1.984 81.881 2.15467 81.881 2.304V19.36C81.881 19.5307 81.9023 19.7227 81.945 19.936C82.009 20.128 82.0837 20.3093 82.169 20.48C82.2543 20.6507 82.3503 20.8 82.457 20.928C82.585 21.056 82.7237 21.12 82.873 21.12H83.033V21.44H78.553V21.12Z" fill="#EFE7D2"/>
<path d="M85.6913 21.12H85.8512C86.0219 21.12 86.1712 21.0667 86.2992 20.96C86.4272 20.832 86.5339 20.6827 86.6192 20.512C86.7259 20.3413 86.8006 20.16 86.8433 19.968C86.9073 19.776 86.9393 19.5947 86.9393 19.424V2.304C86.9393 2.15467 86.9073 1.984 86.8433 1.792C86.8006 1.6 86.7259 1.41867 86.6192 1.248C86.5339 1.07733 86.4272 0.938665 86.2992 0.831999C86.1712 0.703999 86.0219 0.639999 85.8512 0.639999H85.6913V0.32H98.0113V3.296H97.6913C97.6486 2.80533 97.4566 2.37867 97.1152 2.016C96.7739 1.632 96.2406 1.44 95.5153 1.44H89.0833V9.536H94.3952C94.8859 9.536 95.2913 9.38667 95.6113 9.088C95.9526 8.78933 96.1233 8.43733 96.1233 8.032H96.4433V12.032H96.1233C96.1233 11.648 95.9632 11.3173 95.6432 11.04C95.3232 10.7627 94.9072 10.624 94.3952 10.624H89.0833V20.32H96.0912C96.4966 20.32 96.8486 20.224 97.1473 20.032C97.4459 19.84 97.6913 19.616 97.8833 19.36C98.0966 19.0827 98.2459 18.7947 98.3313 18.496C98.4379 18.176 98.4912 17.9093 98.4912 17.696H98.8112V21.44H85.6913V21.12Z" fill="#EFE7D2"/>
<path d="M104.583 21.12H104.743V21.44H101.19V21.12H101.351C101.5 21.12 101.639 21.056 101.767 20.928C101.916 20.8 102.033 20.6507 102.118 20.48C102.204 20.3093 102.268 20.128 102.311 19.936C102.375 19.7227 102.407 19.5307 102.407 19.36V2.304C102.407 2.15467 102.385 1.984 102.342 1.792C102.321 1.6 102.268 1.41867 102.183 1.248C102.097 1.07733 101.98 0.938665 101.83 0.831999C101.681 0.703999 101.5 0.639999 101.286 0.639999H101.127V0.32H104.359L115.975 18.624V2.304C115.975 2.15467 115.943 1.984 115.879 1.792C115.836 1.6 115.761 1.41867 115.655 1.248C115.569 1.07733 115.463 0.938665 115.335 0.831999C115.207 0.703999 115.057 0.639999 114.887 0.639999H114.727V0.32H118.311V0.639999H118.15C117.98 0.639999 117.83 0.703999 117.702 0.831999C117.575 0.938665 117.457 1.07733 117.351 1.248C117.265 1.41867 117.201 1.6 117.159 1.792C117.116 1.984 117.094 2.15467 117.094 2.304V21.44H115.111L103.527 3.072V19.36C103.527 19.5307 103.548 19.7227 103.59 19.936C103.633 20.128 103.697 20.3093 103.783 20.48C103.889 20.6507 104.007 20.8 104.134 20.928C104.262 21.056 104.412 21.12 104.583 21.12Z" fill="#EFE7D2"/>
</svg>
