<svg width="16" height="15" viewBox="0 0 16 15" fill="none" xmlns="http://www.w3.org/2000/svg">
<path d="M15.2617 2.90075C15.2299 2.82419 15.1763 2.75869 15.1075 2.71242C15.0388 2.66615 14.9579 2.64117 14.875 2.64059H12.6531C12.3785 2.13619 11.9745 1.71401 11.4827 1.41743C10.9909 1.12086 10.4289 0.960588 9.85468 0.953095C8.99182 0.949344 8.16263 1.28756 7.54855 1.89373C6.93448 2.4999 6.58554 3.32464 6.57811 4.18747V4.79919C3.59686 4.08903 1.13592 1.66325 1.1078 1.64216C1.05359 1.58865 0.985911 1.55081 0.911935 1.53266C0.83796 1.51451 0.760451 1.51673 0.687634 1.53908C0.614817 1.56143 0.54941 1.60308 0.498353 1.6596C0.447297 1.71613 0.412496 1.78542 0.397643 1.86013C-0.214075 5.207 0.791394 7.44294 1.74061 8.72966C2.24405 9.41861 2.86248 10.0156 3.56874 10.4945C2.47889 11.8164 0.685925 12.5054 0.664831 12.5125C0.604926 12.5345 0.550919 12.5701 0.507016 12.6165C0.463112 12.6628 0.430496 12.7186 0.411706 12.7797C0.391754 12.8392 0.385815 12.9025 0.394352 12.9647C0.40289 13.0269 0.425672 13.0863 0.460925 13.1383C0.531237 13.2437 1.2203 14.1718 3.62499 14.1718C8.52577 14.1718 12.625 10.382 13.0187 5.51638L15.1703 3.35778C15.2313 3.30064 15.2729 3.22587 15.2893 3.14392C15.3057 3.06197 15.296 2.97695 15.2617 2.90075ZM12.3086 5.03122C12.2354 5.10419 12.1927 5.20219 12.1891 5.30544C11.9008 9.80544 8.13905 13.3281 3.62499 13.3281C2.64764 13.3281 2.02186 13.1593 1.64921 12.9906C2.44374 12.5898 3.74452 11.8023 4.53905 10.607C4.5707 10.5574 4.592 10.502 4.60167 10.444C4.61134 10.386 4.60917 10.3266 4.5953 10.2695C4.58031 10.211 4.55315 10.1564 4.51559 10.1091C4.47803 10.0619 4.43091 10.0231 4.37733 9.99528C4.36327 9.99528 3.30858 9.44685 2.39452 8.19528C1.30467 6.70466 0.875769 4.88356 1.11483 2.78122C2.14139 3.65309 4.35624 5.29841 6.92967 5.72731C6.99024 5.73882 7.05262 5.73668 7.11225 5.72105C7.17189 5.70542 7.2273 5.67669 7.27444 5.63696C7.32158 5.59722 7.35927 5.54748 7.38477 5.49135C7.41027 5.43522 7.42294 5.37411 7.42186 5.31247V4.18747C7.42743 3.55028 7.68495 2.9412 8.13815 2.49327C8.59135 2.04533 9.20341 1.79496 9.84061 1.79684C10.301 1.80349 10.7499 1.94219 11.1338 2.19646C11.5177 2.45073 11.8205 2.80988 12.0062 3.23122C12.0383 3.30701 12.0922 3.37155 12.1611 3.41663C12.2299 3.4617 12.3107 3.48527 12.393 3.48434H13.8555L12.3086 5.03122Z" fill="#EFE7D2"/>
</svg>
